<?xml version="1.0" encoding="UTF-8"?>
<svg version="1.1" xmlns="http://www.w3.org/2000/svg" width="512" height="512">
<path d="M0 0 C1.05123047 -0.04125 2.10246094 -0.0825 3.18554688 -0.125 C10.88698318 -0.20167889 15.42554237 1.53665184 21.3125 6.5 C23.26552765 5.54765184 25.16922794 4.58829245 27.0199343 3.44778115 C33.08937339 -0.1156205 38.72953019 -0.064531 45.6343689 -0.0146637 C47.4777624 -0.02508199 47.4777624 -0.02508199 49.35839617 -0.03571075 C52.75319576 -0.05079854 56.14711513 -0.0480534 59.54187441 -0.03755772 C63.20934592 -0.03054935 66.87672894 -0.0465761 70.54417419 -0.05955505 C77.72273984 -0.08117368 84.90114682 -0.08107356 92.07973431 -0.07292951 C97.91614402 -0.06662374 103.75250755 -0.06777183 109.58891678 -0.07420158 C110.42032936 -0.07510324 111.25174195 -0.07600489 112.10834885 -0.07693387 C113.79749628 -0.07878512 115.4866437 -0.08064768 117.1757911 -0.08252143 C133.0085318 -0.09909275 148.84118334 -0.09038671 164.67391868 -0.07353585 C179.14851856 -0.05884269 193.62291078 -0.07346304 208.09748392 -0.10230602 C222.97103134 -0.13172257 237.844483 -0.14266551 252.71805823 -0.13312382 C254.4015227 -0.1321013 256.08498719 -0.13110669 257.76845169 -0.1301403 C259.01079694 -0.12942572 259.01079694 -0.12942572 260.27824008 -0.1286967 C266.10411334 -0.12653537 271.92989565 -0.13632173 277.75574875 -0.15091133 C284.86082378 -0.16845666 291.96563423 -0.16828606 299.07069896 -0.14555968 C302.69333212 -0.1344367 306.31549953 -0.13121002 309.93811226 -0.14986038 C313.8712048 -0.169848 317.80357381 -0.15083662 321.73666382 -0.12818909 C323.44154892 -0.14594268 323.44154892 -0.14594268 325.18087614 -0.16405493 C333.32257238 -0.0689553 339.99516422 1.7042462 346.22187173 7.17869848 C351.47570406 12.58096404 353.4650443 19.14024055 353.5 26.5625 C353.438125 27.861875 353.37625 29.16125 353.3125 30.5 C353.92996094 30.45359375 354.54742187 30.4071875 355.18359375 30.359375 C361.73873483 30.08000826 366.72873577 30.93965924 372.3125 34.5 C377.44301723 39.40745126 380.39305909 45.43773299 380.63047791 52.57215881 C380.6205099 54.02754048 380.59436914 55.48287607 380.55444336 56.93774414 C380.54081757 58.14228996 380.54081757 58.14228996 380.5269165 59.37117004 C380.50668138 61.10409062 380.48021756 62.83694766 380.44810295 64.5696888 C380.4014756 67.33667455 380.38184019 70.10263537 380.37049866 72.86997986 C380.33770221 80.73451548 380.2919977 88.59784534 380.14477539 96.46118164 C379.2758313 127.51695027 379.2758313 127.51695027 391.85610962 155.28594971 C402.55204727 171.54624928 407.29829552 193.54418174 411.125 212.3125 C411.31989014 213.26463379 411.51478027 214.21676758 411.71557617 215.19775391 C414.6757214 230.61033906 415.6956269 245.95627701 415.625 261.625 C415.62226578 262.89609619 415.62226578 262.89609619 415.61947632 264.19287109 C415.56920021 278.14572053 414.81908341 291.74739492 412.3125 305.5 C412.15152832 306.41990723 411.99055664 307.33981445 411.82470703 308.28759766 C400.91951054 368.91043349 365.59163737 427.33261395 315.3125 463.5 C314.69052734 463.95036621 314.06855469 464.40073242 313.42773438 464.86474609 C291.19277395 480.8482189 267.42346069 493.17634719 241.3125 501.5 C240.59143066 501.73557617 239.87036133 501.97115234 239.12744141 502.21386719 C227.40916904 506.0195234 215.48120307 508.59597735 203.3125 510.5 C202.17844727 510.68022705 201.04439453 510.8604541 199.87597656 511.04614258 C189.27142737 512.56117467 178.79163065 512.84003332 168.08789062 512.81567383 C165.21184859 512.81252664 162.33685253 512.83602754 159.4609375 512.86132812 C142.41554917 512.91986992 125.5875737 511.1590471 109 507.125 C108.09233887 506.90932373 107.18467773 506.69364746 106.24951172 506.47143555 C103.59923238 505.83135138 100.95526559 505.17035251 98.3125 504.5 C97.21010986 504.22615479 97.21010986 504.22615479 96.08544922 503.94677734 C59.37556683 494.65563394 24.41262387 474.50453977 -3.21484375 448.78515625 C-5.28610099 446.87096117 -7.39664701 445.05412389 -9.5625 443.25 C-54.02209913 404.31389486 -80.68818324 342.53313672 -85.6875 284.5 C-85.83657478 281.19495276 -85.87379185 277.89405575 -85.890625 274.5859375 C-85.90121445 273.19977737 -85.90121445 273.19977737 -85.91201782 271.78561401 C-86.14080943 233.04018258 -86.14080943 233.04018258 -82.6875 216.5 C-82.48350586 215.50774414 -82.27951172 214.51548828 -82.06933594 213.49316406 C-77.41730086 191.4924916 -70.51952317 170.71813402 -60.6875 150.5 C-60.30223145 149.70352051 -59.91696289 148.90704102 -59.52001953 148.08642578 C-54.23141103 137.28233387 -48.15088734 127.20845769 -41.25390625 117.35546875 C-40.75075897 116.63551727 -40.24761169 115.9155658 -39.72921753 115.17379761 C-37.6875 112.5 -37.6875 112.5 -34.97348022 109.63981628 C-25.98061216 99.96609624 -25.17633527 92.10150071 -25.53515625 79.2578125 C-25.54341481 77.4361228 -25.54619414 75.61440095 -25.54380798 73.79269409 C-25.54942752 69.0369369 -25.61689969 64.28428487 -25.70178223 59.52935791 C-25.82841434 51.90177676 -25.86406006 44.2734602 -25.89086723 36.6449852 C-25.90979026 33.99653597 -25.9581874 31.34989795 -26.01100159 28.70193481 C-26.02767387 27.06968907 -26.04365572 25.43743607 -26.05883789 23.80517578 C-26.08114975 23.07982132 -26.10346161 22.35446686 -26.12644958 21.60713196 C-26.14365245 15.63158109 -24.40457529 10.37792575 -20.23973179 5.96652412 C-13.6514272 0.27254877 -8.42055661 0.08111313 0 0 Z " fill="#F7C12B" transform="translate(91.6875,-0.5)"/>
<path d="M0 0 C1.05123047 -0.04125 2.10246094 -0.0825 3.18554688 -0.125 C9.69515668 -0.18981254 13.98285336 0.76051296 19.38598633 4.42382812 C24.26769231 9.6847618 25.90993556 15.4896312 25.80469131 22.59028625 C25.80930669 23.36772704 25.81392207 24.14516782 25.81867731 24.94616741 C25.82923833 27.54299348 25.81134413 30.13882106 25.79351807 32.7355957 C25.79526302 34.61928667 25.79876654 36.50297668 25.80387473 38.38666153 C25.81281338 43.55642749 25.79682618 48.72586161 25.77676249 53.8955853 C25.75948598 59.47286539 25.76533433 65.05012682 25.76837158 70.62742615 C25.77046881 80.2883243 25.75792055 89.94911438 25.73542023 99.60998535 C25.70290977 113.57795943 25.69249417 127.54588126 25.68746826 141.51388907 C25.67871412 164.17612285 25.65212966 186.8382892 25.61425781 209.50048828 C25.57751171 231.51448264 25.54918136 253.52846158 25.53222656 275.54248047 C25.53170046 276.2212237 25.53117435 276.89996693 25.53063231 277.59927814 C25.52535816 284.41558803 25.52025491 291.23189804 25.51527687 298.04820816 C25.47352297 355.19884558 25.40294741 412.34942012 25.3125 469.5 C22.28068285 468.80411415 20.30868409 468.00110574 17.80859375 466.12890625 C17.15568359 465.64188232 16.50277344 465.1548584 15.83007812 464.65307617 C14.80043945 463.86574097 14.80043945 463.86574097 13.75 463.0625 C13.03908203 462.52407471 12.32816406 461.98564941 11.59570312 461.4309082 C6.37678365 457.43009019 1.47434501 453.21783812 -3.3203125 448.71484375 C-5.35097153 446.81487069 -7.42591118 445.02753551 -9.5625 443.25 C-54.02209913 404.31389486 -80.68818324 342.53313672 -85.6875 284.5 C-85.83657478 281.19495276 -85.87379185 277.89405575 -85.890625 274.5859375 C-85.90121445 273.19977737 -85.90121445 273.19977737 -85.91201782 271.78561401 C-86.14080943 233.04018258 -86.14080943 233.04018258 -82.6875 216.5 C-82.48350586 215.50774414 -82.27951172 214.51548828 -82.06933594 213.49316406 C-77.41730086 191.4924916 -70.51952317 170.71813402 -60.6875 150.5 C-60.30223145 149.70352051 -59.91696289 148.90704102 -59.52001953 148.08642578 C-54.23141103 137.28233387 -48.15088734 127.20845769 -41.25390625 117.35546875 C-40.75075897 116.63551727 -40.24761169 115.9155658 -39.72921753 115.17379761 C-37.6875 112.5 -37.6875 112.5 -34.97348022 109.63981628 C-25.98061216 99.96609624 -25.17633527 92.10150071 -25.53515625 79.2578125 C-25.54341481 77.4361228 -25.54619414 75.61440095 -25.54380798 73.79269409 C-25.54942752 69.0369369 -25.61689969 64.28428487 -25.70178223 59.52935791 C-25.82841434 51.90177676 -25.86406006 44.2734602 -25.89086723 36.6449852 C-25.90979026 33.99653597 -25.9581874 31.34989795 -26.01100159 28.70193481 C-26.02767387 27.06968907 -26.04365572 25.43743607 -26.05883789 23.80517578 C-26.08114975 23.07982132 -26.10346161 22.35446686 -26.12644958 21.60713196 C-26.14365245 15.63158109 -24.40457529 10.37792575 -20.23973179 5.96652412 C-13.6514272 0.27254877 -8.42055661 0.08111313 0 0 Z " fill="#F39D0B" transform="translate(91.6875,-0.5)"/>
<path d="M0 0 C1.70643084 1.40450887 3.391221 2.82971871 5.06542969 4.27246094 C7.25619348 6.11270252 9.54584713 7.81005389 11.85791016 9.49462891 C15.80958646 13.14056623 18.50532163 15.95916968 19.27905273 21.42456055 C19.25313616 22.8918293 19.1980804 24.35874193 19.12109375 25.82421875 C19.09920486 26.6653421 19.07731598 27.50646545 19.05476379 28.37307739 C19.00222653 30.33558343 18.93835584 32.2978045 18.86584473 34.25967407 C18.73504844 38.12991413 18.6588217 42.0001071 18.59082031 45.87182617 C18.46465885 52.84510551 18.3047394 59.81697276 18.12304306 66.78901958 C18.01718553 70.85888192 17.91698545 74.92869204 17.83081055 78.99902344 C17.74612019 82.99709315 17.64755486 86.99459387 17.53899574 90.9920845 C17.50031662 92.49977729 17.46642557 94.00760136 17.43758202 95.51551437 C17.39644254 97.61298371 17.33741825 99.70924897 17.27416992 101.80615234 C17.24530197 102.99381195 17.21643402 104.18147156 17.18669128 105.40512085 C16.56812983 110.05452257 15.14855153 113.48874155 11.5625 116.5625 C7.88710961 118.03265615 4.61754897 118.3762416 0.75 117.6875 C-3.27954015 115.59810881 -5.70903091 113.96144341 -7.25 109.6875 C-7.5349493 106.69553234 -7.71657108 103.7796401 -7.8125 100.78125 C-7.84854843 99.88424881 -7.88459686 98.98724762 -7.92173767 98.06306458 C-7.99875578 96.1202914 -8.07163065 94.17735052 -8.14083862 92.23428345 C-8.25075541 89.16641592 -8.37283917 86.09925145 -8.49829102 83.03198242 C-8.84699753 74.44084919 -9.17249906 65.84891086 -9.48388672 57.25634766 C-9.66949682 52.14161063 -9.86803107 47.02751099 -10.07446289 41.91357422 C-10.14969292 39.97449189 -10.21937389 38.03518616 -10.28344727 36.09570312 C-10.37275898 33.39256627 -10.47938659 30.69062436 -10.58984375 27.98828125 C-10.61175278 27.18727493 -10.6336618 26.38626862 -10.65623474 25.56098938 C-10.83173591 21.39196766 -10.83173591 21.39196766 -12.59204102 17.69604492 C-15.53958875 15.90303657 -17.88426723 16.30126837 -21.25 16.6875 C-27.14093215 18.66604837 -30.73604852 21.62327581 -34.25 26.6875 C-36.21679606 30.76058239 -36.77575851 34.75399296 -37.21142578 39.20556641 C-37.2897464 39.94630905 -37.36806702 40.6870517 -37.44876099 41.45024109 C-37.70516502 43.89579882 -37.95066793 46.34230239 -38.1953125 48.7890625 C-38.37144791 50.50763664 -38.54795778 52.22617244 -38.724823 53.94467163 C-39.09444666 57.55377782 -39.45849947 61.16339384 -39.81884766 64.7734375 C-40.27577568 69.34523494 -40.74778922 73.915321 -41.22441292 78.4851017 C-41.59332408 82.04176176 -41.95308949 85.59930608 -42.31042099 89.15714645 C-42.48050947 90.83872533 -42.65344495 92.52001927 -42.82956314 94.20097733 C-43.75976332 103.12366446 -44.41112371 111.98755199 -44.47607422 120.96240234 C-44.48598955 121.7404957 -44.49590488 122.51858906 -44.50612068 123.320261 C-44.46857216 134.00517161 -40.16418122 141.59053583 -32.84765625 149.17578125 C-25.05362594 157.03645001 -25.05362594 157.03645001 -16.45057678 163.89120483 C-13.58372354 165.92608852 -11.57474487 167.4854275 -10.63598633 170.96032715 C-10.44070896 173.70489773 -10.46220694 176.36763266 -10.56640625 179.1171875 C-10.57631088 180.10751984 -10.58621552 181.09785217 -10.59642029 182.11819458 C-10.63547101 185.26783066 -10.72327596 188.41392539 -10.8125 191.5625 C-10.84762588 193.70307451 -10.87956265 195.84370389 -10.90820312 197.984375 C-10.97924528 203.22119695 -11.11620566 208.45040707 -11.25 213.6875 C-0.36 213.6875 10.53 213.6875 21.75 213.6875 C21.585 210.52027344 21.42 207.35304688 21.25 204.08984375 C21.11786178 201.00883267 20.9999095 197.92758057 20.88330078 194.84594727 C20.79492476 192.71051706 20.69189445 190.57563955 20.57373047 188.44165039 C20.40602559 185.36634419 20.29181821 182.29287352 20.1875 179.21484375 C20.09275391 177.79255714 20.09275391 177.79255714 19.99609375 176.34153748 C19.9049412 172.36218102 19.87292253 169.76522754 22.44775391 166.60134888 C24.47505043 164.82819446 26.5713127 163.26781521 28.75 161.6875 C29.93919777 160.54380822 31.1096542 159.37990668 32.25 158.1875 C34.63695434 155.7408718 37.10914805 153.54354574 39.75 151.375 C47.6519491 144.51641506 53.21952184 135.91740391 53.9921875 125.38671875 C54.13793497 117.71878238 53.46064853 110.30004557 52.46655273 102.71118164 C51.76930761 97.30831637 51.57734367 92.12617435 51.75 86.6875 C52.08 86.6875 52.41 86.6875 52.75 86.6875 C55.61607638 99.15834423 56.08268894 111.5113264 56.125 124.25 C56.13249268 125.02443451 56.13998535 125.79886902 56.14770508 126.59677124 C56.27197035 142.28836828 54.28118836 157.32552356 49.5 172.3125 C49.19481445 173.28340576 48.88962891 174.25431152 48.57519531 175.25463867 C36.84414791 211.70467882 13.07629153 242.9231593 -21.25 260.6875 C-25.64004739 262.52699515 -30.0954601 264.04296337 -34.625 265.5 C-36.29949219 266.07137695 -36.29949219 266.07137695 -38.0078125 266.65429688 C-48.85653518 270.22262674 -59.87986056 272.09215728 -71.3125 271.9375 C-72.07361084 271.93073242 -72.83472168 271.92396484 -73.61889648 271.91699219 C-80.29593109 271.79606453 -86.7044071 271.03195864 -93.25 269.6875 C-93.89259766 269.56391113 -94.53519531 269.44032227 -95.19726562 269.31298828 C-124.05096548 263.69346458 -147.49749267 248.04089064 -165.25 224.6875 C-166.01054687 223.71683594 -166.77109375 222.74617187 -167.5546875 221.74609375 C-185.32253772 198.47559415 -193.40080483 173.1154416 -198.25 144.6875 C-198.43320801 143.73689697 -198.61641602 142.78629395 -198.80517578 141.80688477 C-199.31933499 138.20127982 -199.36222457 134.74364347 -199.34765625 131.1015625 C-199.3462413 130.39977875 -199.34482635 129.697995 -199.34336853 128.97494507 C-199.3378129 126.75408496 -199.32526892 124.53332916 -199.3125 122.3125 C-199.30747926 120.79817855 -199.30291736 119.2838555 -199.29882812 117.76953125 C-199.28785807 114.07548748 -199.27062449 110.38150394 -199.25 106.6875 C-198.92 106.6875 -198.59 106.6875 -198.25 106.6875 C-198.21036133 107.24099121 -198.17072266 107.79448242 -198.12988281 108.36474609 C-196.95465307 123.96413539 -195.63006468 135.86953444 -183.25 146.6875 C-176.42515771 152.24897059 -169.33085682 157.45946041 -162.25 162.6875 C-160.34748699 164.1085697 -158.44810667 165.5336824 -156.55004883 166.96069336 C-155.11449188 168.03900035 -153.67461548 169.11155034 -152.234375 170.18359375 C-150.25 171.6875 -150.25 171.6875 -149.25 172.6875 C-149.23301067 175.71904535 -149.27925955 178.72505404 -149.37109375 181.75390625 C-149.40651024 183.11684059 -149.40651024 183.11684059 -149.44264221 184.50730896 C-149.51947851 187.42169046 -149.60341637 190.33581944 -149.6875 193.25 C-149.74070072 195.22069059 -149.79344123 197.19139366 -149.84570312 199.16210938 C-149.9742519 204.00411334 -150.11238903 208.84571103 -150.25 213.6875 C-139.36 213.6875 -128.47 213.6875 -117.25 213.6875 C-117.56324219 209.38332031 -117.56324219 209.38332031 -117.8828125 204.9921875 C-119.70884887 173.25953571 -119.70884887 173.25953571 -113.8046875 166.203125 C-110.15832283 163.08244695 -106.08756281 160.92144249 -101.74365234 158.91796875 C-97.64090612 156.89350811 -94.16079048 154.11226457 -90.5625 151.3125 C-89.89702148 150.81468018 -89.23154297 150.31686035 -88.54589844 149.80395508 C-79.65291049 143.1206232 -73.6494559 135.7617522 -71.25 124.6875 C-71.15477517 123.23716688 -71.10690733 121.78326492 -71.09609985 120.32984924 C-71.08749939 119.46491852 -71.07889893 118.59998779 -71.07003784 117.70884705 C-71.06577789 116.76795731 -71.06151794 115.82706757 -71.05712891 114.85766602 C-71.04895142 113.86049561 -71.04077393 112.8633252 -71.03234863 111.8359375 C-71.00754476 108.5377665 -70.99099474 105.23963827 -70.9765625 101.94140625 C-70.96857698 100.25173894 -70.96857698 100.25173894 -70.96043015 98.52793694 C-70.93372518 92.56998246 -70.91433849 86.61204879 -70.89990234 80.65405273 C-70.88654094 75.71962031 -70.85864354 70.78559923 -70.81787109 65.85131836 C-70.76864945 59.89444532 -70.74379469 53.93794657 -70.73667526 47.98087883 C-70.72995021 45.71023408 -70.71469585 43.43959809 -70.69078445 41.16906929 C-70.65924967 37.99450946 -70.65907852 34.82140313 -70.66650391 31.64672852 C-70.65009857 30.70786301 -70.63369324 29.7689975 -70.61679077 28.80168152 C-70.65813254 24.48907487 -70.86115311 22.27755682 -73.28053284 18.60626221 C-77.01494898 16.19321765 -80.03358856 15.97841108 -84.3449707 16.02807617 C-85.54575508 16.01235062 -85.54575508 16.01235062 -86.77079773 15.99630737 C-89.40618852 15.96759835 -92.04026236 15.9738437 -94.67578125 15.98046875 C-96.50711205 15.96735114 -98.33842839 15.95204672 -100.16972351 15.93464661 C-104.98169586 15.89479089 -109.79328978 15.8846058 -114.60540771 15.88061523 C-119.51895634 15.87128488 -124.43228251 15.83387194 -129.34570312 15.79882812 C-138.98045835 15.73424647 -148.61504727 15.70101111 -158.25 15.6875 C-153.51047001 5.51494804 -141.43350242 -1.32878396 -132.25 -7.3125 C-131.44175781 -7.85648438 -130.63351563 -8.40046875 -129.80078125 -8.9609375 C-89.85969327 -34.59375797 -36.5925874 -28.48060561 0 0 Z " fill="#F39D0B" transform="translate(347.25,188.3125)"/>
<path d="M0 0 C1.67175797 -0.01073296 1.67175797 -0.01073296 3.37728882 -0.02168274 C7.05459808 -0.03856658 10.73068789 -0.0191684 14.40795898 0.00219727 C16.96573487 0.00136861 19.52351071 -0.00109065 22.08128357 -0.00511169 C27.43864398 -0.00796944 32.79557405 0.00620019 38.15283203 0.03417969 C44.3401144 0.0662457 50.52676654 0.06620785 56.71409374 0.04896492 C62.67608091 0.03308443 68.63787522 0.03994022 74.59986687 0.05690193 C77.13282695 0.06208701 79.66580519 0.06159802 82.19876289 0.05535698 C85.73707342 0.04991105 89.27431163 0.07026157 92.8125 0.09765625 C94.38439842 0.08786743 94.38439842 0.08786743 95.98805237 0.07788086 C100.45816146 0.13677291 103.09149688 0.17333369 106.96836853 2.53944397 C109.54797111 5.41991368 109.96695106 6.94834755 109.98199463 10.71459961 C109.98770477 11.56955521 109.99341492 12.4245108 109.9992981 13.30537415 C110.00097488 14.71571175 110.00097488 14.71571175 110.00268555 16.15454102 C110.0101329 17.63781136 110.0101329 17.63781136 110.01773071 19.15104675 C110.03238317 22.43607268 110.03916154 25.72105022 110.04467773 29.00610352 C110.05042924 31.28857423 110.05618697 33.57104494 110.06195068 35.85351562 C110.0724712 40.64868393 110.07830614 45.44383544 110.08178711 50.23901367 C110.08725618 56.36771272 110.11124585 62.49618784 110.13975906 68.62481689 C110.15843953 73.34503818 110.16359406 78.0652063 110.16512299 82.78546143 C110.16814079 85.04357113 110.17613972 87.30168009 110.18930817 89.55975342 C110.20647191 92.73084164 110.20446247 95.90139321 110.19799805 99.07250977 C110.20721283 99.99654099 110.21642761 100.9205722 110.22592163 101.87260437 C110.17530424 109.84823068 108.87540196 118.00585588 103.65405273 124.31860352 C103.12424805 124.9824707 102.59444336 125.64633789 102.04858398 126.33032227 C95.9371692 132.70133697 88.91975772 137.95465937 81.84155273 143.19360352 C80.99077148 143.82717773 80.13999023 144.46075195 79.26342773 145.11352539 C77.66300888 146.30524833 76.06159298 147.49563466 74.45874023 148.68408203 C73.59506836 149.32659912 72.73139648 149.96911621 71.84155273 150.63110352 C71.16511719 151.03300903 70.48868164 151.43491455 69.79174805 151.84899902 C65.52462302 154.52930018 65.52462302 154.52930018 63.10668945 158.78364563 C62.82076478 161.3546475 62.78498812 163.81838199 62.84155273 166.40454102 C62.83067627 167.32828522 62.8197998 168.25202942 62.80859375 169.20376587 C62.78250624 172.13907664 62.81123324 175.07088741 62.84155273 178.00610352 C62.8334582 180.00221525 62.82177855 181.99831588 62.80639648 183.99438477 C62.76987973 188.87545784 62.80755365 193.74798443 62.84155273 198.63110352 C51.95155273 198.63110352 41.06155273 198.63110352 29.84155273 198.63110352 C30.05038086 195.83383789 30.25920898 193.03657227 30.47436523 190.15454102 C32.70585987 170.16284683 32.70585987 170.16284683 26.39624023 152.21313477 C22.74423125 149.09375298 18.67063459 146.91319683 14.33520508 144.88208008 C10.23240847 142.82385315 6.75980979 140.00790553 3.15405273 137.19360352 C2.52047852 136.73171631 1.8869043 136.2698291 1.23413086 135.79394531 C-4.9278241 131.28928179 -10.81090802 126.44846545 -14.03344727 119.38110352 C-14.42274414 118.55094727 -14.81204102 117.72079102 -15.21313477 116.86547852 C-16.62667573 113.5243817 -17.28704949 110.88015618 -17.31907654 107.27981567 C-17.33414497 105.94661789 -17.33414497 105.94661789 -17.34951782 104.58648682 C-17.35534882 103.61394958 -17.36117981 102.64141235 -17.3671875 101.6394043 C-17.37697128 100.6131192 -17.38675507 99.58683411 -17.39683533 98.52944946 C-17.42678553 95.12845154 -17.44817077 91.72749282 -17.46704102 88.32641602 C-17.47361284 87.16595638 -17.48018467 86.00549675 -17.48695564 84.80987167 C-17.51954356 78.67037932 -17.54399892 72.53090432 -17.56347656 66.39135742 C-17.58131171 61.30451332 -17.6161691 56.21822124 -17.66601562 51.1315918 C-17.72609063 44.9943058 -17.75693455 38.85753293 -17.76664925 32.71996689 C-17.77522449 30.37952582 -17.79409303 28.03909921 -17.82339287 25.69882584 C-17.86217269 22.42580157 -17.86335925 19.15479002 -17.85546875 15.8815918 C-17.87546936 14.91310303 -17.89546997 13.94461426 -17.91607666 12.94677734 C-17.86646441 8.36879094 -17.636571 6.2630989 -14.81228638 2.52989197 C-10.31933046 -0.46223267 -5.21052554 -0.05824843 0 0 Z " fill="#FAEECE" transform="translate(167.158447265625,203.368896484375)"/>
<path d="M0 0 C0.89572723 -0.00602863 1.79145447 -0.01205727 2.71432495 -0.01826859 C3.46948647 -0.02543081 4.22464798 -0.03259304 5.00269318 -0.03997231 C10.5959629 0.15619366 14.86215963 3.02283518 18.78695679 6.77698898 C22.86201779 13.00943522 24.36519983 18.7130545 24.2684021 26.18250656 C24.27044647 26.95650803 24.27249084 27.73050949 24.27459717 28.52796555 C24.27759135 31.07606195 24.25912333 33.62350082 24.24008179 36.17152023 C24.23701303 37.98195868 24.23514542 39.79239952 24.23440552 41.60284042 C24.22980586 45.40992349 24.21542564 49.21679471 24.19320679 53.02381516 C24.16546421 57.79014901 24.15415744 62.55631519 24.14936066 67.32272148 C24.13650336 79.22494488 24.05500439 91.12562775 23.91195679 103.02698898 C23.90179535 103.8954319 23.89163391 104.76387482 23.88116455 105.65863419 C23.82018093 110.62890142 23.73991164 115.59824136 23.63140106 120.56770515 C23.60013054 122.0688067 23.57339023 123.5700107 23.55158234 125.07127953 C23.30964117 140.85269103 23.30964117 140.85269103 17.72445679 147.71448898 C10.34930814 153.77850009 6.23996796 154.02698898 -4.08804321 154.02698898 C-4.08804321 137.19698898 -4.08804321 120.36698898 -4.08804321 103.02698898 C-8.79803589 103.04269943 -13.50802856 103.05840988 -18.36074829 103.07459641 C-33.89122153 103.12421939 -49.42169781 103.15756136 -64.9522295 103.1824255 C-74.37197212 103.1979066 -83.79163974 103.2190198 -93.21133423 103.25330734 C-101.41976889 103.28317173 -109.62814924 103.30255494 -117.83663672 103.30925447 C-122.18458921 103.31317177 -126.5323863 103.32240361 -130.88028908 103.34417915 C-134.97028243 103.36449762 -139.06005596 103.37083225 -143.15009499 103.36631203 C-144.65336297 103.36713932 -146.15663809 103.37313265 -147.65986252 103.38460541 C-149.7081601 103.39947518 -151.75657487 103.39416792 -153.80491638 103.38775253 C-154.95254865 103.39051791 -156.10018091 103.39328329 -157.28258991 103.39613247 C-160.08804321 103.02698898 -160.08804321 103.02698898 -161.95559216 101.64836216 C-163.62655824 99.25597658 -163.51671635 97.90076377 -163.08804321 95.02698898 C-161.65444946 92.09534836 -161.65444946 92.09534836 -159.65054321 88.87073898 C-159.29218384 88.28715622 -158.93382446 87.70357346 -158.56460571 87.10230637 C-157.41604753 85.23726547 -156.25247433 83.38215155 -155.08804321 81.52698898 C-154.3357206 80.3114742 -153.58440923 79.09533291 -152.83413696 77.87855148 C-152.08552255 76.66756236 -151.33682476 75.45662478 -150.58804321 74.24573898 C-150.21832397 73.64680832 -149.84860474 73.04787766 -149.46768188 72.43079758 C-147.5898578 69.4009417 -145.68144747 66.39999589 -143.70523071 63.43323898 C-143.32817993 62.85481247 -142.95112915 62.27638596 -142.56265259 61.68043137 C-141.52787237 60.09506261 -140.47645825 58.52058656 -139.42398071 56.94691086 C-137.7673832 53.32613122 -137.91974967 51.80424751 -139.08804321 48.02698898 C-140.63664376 44.88815984 -140.63664376 44.88815984 -142.65835571 41.73792648 C-143.19732986 40.86111725 -143.19732986 40.86111725 -143.74719238 39.9665947 C-144.89343509 38.10595099 -146.05266908 36.25384544 -147.21304321 34.40198898 C-147.96917801 33.18251086 -148.72439411 31.96246261 -149.47866821 30.74183273 C-149.84973694 30.14155258 -150.22080566 29.54127243 -150.6031189 28.92280197 C-152.0760044 26.53785828 -153.54757855 24.1521163 -155.01638794 21.76465988 C-155.72791828 20.61092547 -156.4423359 19.45896648 -157.15969849 18.30884933 C-158.16482983 16.69291012 -159.15412174 15.06715138 -160.14273071 13.44105148 C-160.71233521 12.51502121 -161.2819397 11.58899094 -161.86880493 10.63489914 C-163.19239488 7.80378424 -163.50487665 6.11076623 -163.08804321 3.02698898 C-160.33664458 0.27559035 -158.77186811 0.76705268 -154.91653442 0.74851608 C-153.59880035 0.7373526 -152.28106628 0.72618912 -150.92340088 0.71468735 C-149.4541934 0.71232201 -147.9849856 0.71014642 -146.51577759 0.70814133 C-144.97507193 0.69884681 -143.43437133 0.68867886 -141.89367676 0.67770004 C-137.69905342 0.65030855 -133.50446386 0.63521976 -129.3097744 0.62227201 C-124.91815714 0.6066547 -120.52660858 0.57985203 -116.13504028 0.55424118 C-107.80304404 0.50736777 -99.47103477 0.47067724 -91.13897371 0.43756831 C-81.69659 0.39954101 -72.25427785 0.3500158 -62.81195354 0.29958415 C-48.10648939 0.22134829 -33.40100498 0.14946601 -18.69546509 0.08704758 C-17.96386547 0.08387968 -17.23226585 0.08071178 -16.47849655 0.07744789 C-13.15837393 0.06316269 -9.83826603 0.05013957 -6.51812744 0.03984833 C-4.34539296 0.03170277 -2.17266677 0.01898875 0 0 Z " fill="#F36D39" transform="translate(448.0880432128906,29.973011016845703)"/>
<path d="M0 0 C0.33 0 0.66 0 1 0 C1 107.91 1 215.82 1 327 C-10.39635025 315.60364975 -19.04134361 301.94760234 -27 288 C-27.45761719 287.19997559 -27.91523437 286.39995117 -28.38671875 285.57568359 C-46.98700571 252.62790637 -59.00947218 214.14336907 -59.203125 176.0859375 C-59.21018463 175.16183075 -59.21724426 174.237724 -59.22451782 173.28561401 C-59.45330943 134.54018258 -59.45330943 134.54018258 -56 118 C-55.79600586 117.00774414 -55.59201172 116.01548828 -55.38183594 114.99316406 C-50.72980086 92.9924916 -43.83202317 72.21813402 -34 52 C-33.61473145 51.20352051 -33.22946289 50.40704102 -32.83251953 49.58642578 C-24.09295711 31.73238427 -12.92063234 15.11516723 0 0 Z " fill="#0CAED1" transform="translate(65,98)"/>
<path d="M0 0 C4.61676825 4.28625171 6.92308565 9.15969072 9.6875 14.75 C10.21424316 15.81404053 10.74098633 16.87808105 11.28369141 17.97436523 C23.79536485 43.75053636 31.12646445 70.67115793 35 99 C35.1045752 99.74733398 35.20915039 100.49466797 35.31689453 101.26464844 C36.36762138 110.0050417 36.24385289 118.83483875 36.25 127.625 C36.25067474 128.49237793 36.25134949 129.35975586 36.25204468 130.25341797 C36.23464785 144.36598519 35.53564553 158.08794287 33 172 C32.83902832 172.91990723 32.67805664 173.83981445 32.51220703 174.78759766 C24.67599611 218.34970389 4.6237187 263.3762813 -27 295 C-27 214.48 -27 133.96 -27 51 C-21.555 50.505 -21.555 50.505 -16 50 C-10.75949714 48.41276384 -6.27914483 46.19966316 -3.4375 41.375 C-1.32680485 36.41945487 -0.80211242 32.37019486 -0.68359375 27.05078125 C-0.66281265 26.27816452 -0.64203156 25.50554779 -0.62062073 24.70951843 C-0.55528962 22.2439352 -0.49631685 19.77824639 -0.4375 17.3125 C-0.39429913 15.63996309 -0.35068434 13.96743681 -0.30664062 12.29492188 C-0.1996251 8.1967225 -0.09831143 4.09841704 0 0 Z " fill="#0FAECF" transform="translate(471,133)"/>
<path d="M0 0 C2.16648865 1.48365784 2.16648865 1.48365784 4 4 C4.47354545 6.98658071 4.70667962 9.63807876 4.77368164 12.63647461 C4.80846115 13.5068486 4.84324066 14.3772226 4.8790741 15.27397156 C4.95193009 17.1615796 5.01589644 19.04954701 5.07200813 20.93772697 C5.16088759 23.92694022 5.27273453 26.91451924 5.39048767 29.90272522 C5.59421525 35.1692643 5.77746305 40.43628385 5.95404053 45.70379639 C6.23671371 54.13165685 6.53584087 62.55871092 6.86239433 70.98498726 C6.97128488 73.92778207 7.06259458 76.87077652 7.15284729 79.81419373 C7.21971334 81.62086757 7.28729683 83.42751505 7.35571289 85.23413086 C7.37604584 86.05143677 7.39637878 86.86874268 7.41732788 87.71081543 C7.60953177 92.26585103 8.12501441 95.26361461 11 99 C14.52221027 101.73949688 18.7364712 101.38990522 23 101 C25.87552456 100.55177592 25.87552456 100.55177592 28 99 C29.8217505 94.63711038 30.28422119 90.7878966 30.39477539 86.08691406 C30.41296829 85.42244766 30.43116119 84.75798126 30.4499054 84.07337952 C30.50770627 81.88758301 30.55262892 79.70171869 30.59765625 77.515625 C30.63636272 75.97546185 30.67596522 74.43532098 30.71641541 72.89520264 C30.82092453 68.83839964 30.91490459 64.78142432 31.00616455 60.7243042 C31.15298903 54.27563925 31.31610538 47.82736618 31.47863579 41.37908173 C31.53323635 39.15628433 31.58356624 36.93342618 31.6330719 34.71051025 C31.71331707 31.20698464 31.81600473 27.70467259 31.93220901 24.2021637 C31.97970162 22.65938486 32.01952814 21.11635981 32.05363083 19.57322693 C32.11024603 17.10875621 32.19232545 14.64619149 32.27905273 12.18261719 C32.2913923 11.42356709 32.30373186 10.66451698 32.31644535 9.88246536 C32.46423903 6.3644468 32.7380146 4.34412174 34.89710999 1.50811768 C38.21890628 -0.87415609 40.65639413 -0.18404165 44.5390625 0.40234375 C50.6962919 1.89767089 54.06086426 5.85420257 57.65682983 10.75531006 C59.82316819 14.37566885 60.24236169 17.82971887 60.64453125 21.9765625 C60.80463432 23.31118027 60.80463432 23.31118027 60.9679718 24.67276001 C61.20392592 26.67170061 61.42798946 28.67206921 61.64215088 30.67346191 C62.02929021 34.27227958 62.45263051 37.86574947 62.88037109 41.45996094 C63.69386665 48.33759998 64.46221016 55.21970772 65.21704102 62.10400391 C65.60916395 65.67772557 66.01202556 69.25015138 66.41737652 72.82239342 C66.73442151 75.63261544 67.04394833 78.44363111 67.35154152 81.25490189 C67.56585601 83.19763051 67.78762201 85.13953269 68.00968933 87.08139038 C69.7626552 103.37208537 70.69917226 117.23413254 60.01733398 130.65429688 C56.71305394 134.49642718 53.05245403 137.90090015 49.3125 141.3125 C47.82901753 142.68315061 46.34593156 144.05423052 44.86328125 145.42578125 C44.21657471 146.01786377 43.56986816 146.60994629 42.90356445 147.2199707 C41.52225203 148.51164044 40.18744201 149.85361237 38.88354492 151.22338867 C37 153 37 153 35 153 C35.0714624 153.66612305 35.1429248 154.33224609 35.21655273 155.01855469 C36.09295104 164.12085046 36.1140473 173.11381175 36.0625 182.25 C36.041875 187.4475 36.02125 192.645 36 198 C25.11 198 14.22 198 3 198 C3.020625 194.83277344 3.04125 191.66554688 3.0625 188.40234375 C3.05527449 185.32089559 3.03439386 182.23981976 3.01220703 179.15844727 C3.00411653 177.02368801 3.01013368 174.88882531 3.03076172 172.75415039 C3.05801052 169.67718734 3.03384002 166.6041688 3 163.52734375 C3.0194165 162.57915268 3.03883301 161.63096161 3.05883789 160.65403748 C2.97364796 156.7035093 2.85949816 154.05076483 0.3031311 150.92552185 C-1.72287757 149.14444821 -3.80030543 147.55904194 -6 146 C-8.90319413 143.42558768 -11.76940549 140.81454423 -14.625 138.1875 C-15.34945313 137.53974609 -16.07390625 136.89199219 -16.8203125 136.22460938 C-23.65389503 129.9047835 -30.27236349 121.66910574 -31.18623161 112.03716564 C-31.25597815 109.788992 -31.25633076 107.55252471 -31.22558594 105.3034668 C-31.21915951 104.47124698 -31.21273308 103.63902716 -31.20611191 102.78158855 C-31.07777613 93.85639328 -30.29256002 85.01944993 -29.390625 76.14453125 C-29.22048709 74.41968762 -29.05071562 72.69480782 -28.88128662 70.96989441 C-28.52793459 67.39713199 -28.16730214 63.82519672 -27.80175781 60.25366211 C-27.33623615 55.69524121 -26.89408385 51.1348765 -26.45773697 46.57358265 C-26.11521886 43.0284321 -25.75815202 39.48485724 -25.39696503 35.94156456 C-25.22773524 34.26007177 -25.06347393 32.5780706 -24.90448761 30.89557838 C-23.18611343 12.85102182 -23.18611343 12.85102182 -17.25390625 5.9765625 C-11.65693095 1.50415268 -7.43602843 -0.8112031 0 0 Z " fill="#FAEECE" transform="translate(333,204)"/>
<path d="M0 0 C1.40185547 0.00966797 1.40185547 0.00966797 2.83203125 0.01953125 C4.28416016 0.04466797 4.28416016 0.04466797 5.765625 0.0703125 C6.74917969 0.07933594 7.73273438 0.08835938 8.74609375 0.09765625 C11.16951907 0.12118465 13.59244722 0.15405882 16.015625 0.1953125 C13.89496512 1.83624594 12.02207554 3.19233533 9.578125 4.3203125 C5.56357419 7.2577887 3.67599048 10.51490565 2.015625 15.1953125 C1.27931632 20.99882703 1.33701374 26.75998802 1.37638855 32.60206604 C1.37007285 34.38350649 1.36156752 36.1649403 1.35106832 37.94636101 C1.32860178 42.82885665 1.33711317 47.71087857 1.3507539 52.59338868 C1.36002507 57.86325985 1.34046698 63.13303387 1.32443237 68.40287781 C1.30059962 77.52899797 1.29498185 86.65498307 1.30177879 95.78112984 C1.31157958 108.97593248 1.29384279 122.17058541 1.26941148 135.36536383 C1.23051885 156.77360849 1.21385876 178.18181033 1.21118164 199.59008789 C1.20853365 220.38470659 1.195414 241.17927525 1.16821289 261.97387695 C1.16653951 263.25592054 1.16486613 264.53796413 1.16314205 265.85885752 C1.1546825 272.29057269 1.1460171 278.72228756 1.13724935 285.15400231 C1.06479257 338.50109681 1.02841773 391.84817262 1.015625 445.1953125 C-2.4040717 443.57999635 -4.63636677 441.78280224 -7.296875 439.0703125 C-8.01488281 438.34585937 -8.73289062 437.62140625 -9.47265625 436.875 C-10.30152344 435.99070312 -11.13039063 435.10640625 -11.984375 434.1953125 C-12.84864246 433.48686306 -12.84864246 433.48686306 -13.73036987 432.76410151 C-18.36193626 428.51266052 -19.50356508 425.06481049 -19.85688305 418.81453705 C-19.91702347 415.76937333 -19.88849642 412.72929137 -19.85307312 409.68395996 C-19.85899353 407.98745114 -19.86797624 406.29095071 -19.8797496 404.59447241 C-19.90313384 399.94157219 -19.88292232 395.28973148 -19.85547054 390.63689113 C-19.83345313 385.61566102 -19.85181997 380.59455671 -19.86509705 375.57331848 C-19.88466321 365.74031732 -19.86679321 355.90772302 -19.8361335 346.07476389 C-19.80173329 334.6243753 -19.8035243 323.17407834 -19.80661199 311.72364897 C-19.81080285 291.2933829 -19.78081628 270.86330783 -19.73217773 250.43310547 C-19.684999 230.60786513 -19.66374867 210.78281568 -19.6706543 190.95751953 C-19.67931731 165.92417242 -19.66510242 140.89094214 -19.63190192 115.8576158 C-19.62199046 107.87579005 -19.62025747 99.89398613 -19.62125206 91.91215515 C-19.62200952 82.18518003 -19.60785084 72.45835535 -19.57497289 62.73143375 C-19.55849775 57.7684247 -19.54832303 52.80562083 -19.55540466 47.84258461 C-19.56167453 43.29890766 -19.54945148 38.75566903 -19.52248154 34.21207124 C-19.51593296 32.56885408 -19.51609327 30.92559355 -19.52365919 29.28238076 C-19.59537304 11.97921144 -19.59537304 11.97921144 -13.53721923 5.693892 C-9.2223651 1.87715682 -5.74737614 -0.07008995 0 0 Z " fill="#DE8C00" transform="translate(84.984375,-0.1953125)"/>
<path d="M0 0 C1.68380516 -0.0010952 1.68380516 -0.0010952 3.40162659 -0.00221252 C7.10304486 0.00126416 10.80319673 0.04013233 14.50439453 0.0793457 C17.07414055 0.08867346 19.64389547 0.09578975 22.21365356 0.1007843 C28.28044784 0.11790853 34.34672137 0.15729323 40.41331971 0.20753175 C47.32257402 0.26350122 54.23185044 0.29093068 61.14127517 0.31600893 C75.34849518 0.36821207 89.555335 0.45610665 103.76220703 0.56762695 C103.76220703 0.89762695 103.76220703 1.22762695 103.76220703 1.56762695 C71.09220703 1.56762695 38.42220703 1.56762695 4.76220703 1.56762695 C4.73312976 19.42114099 4.73312976 19.42114099 4.71337891 37.2746582 C4.70739699 44.55445076 4.70031397 51.83423075 4.68676758 59.11401367 C4.67591654 64.98192228 4.66992547 70.84981743 4.66732979 76.71773529 C4.66547955 78.95846519 4.6618666 81.19919434 4.65647697 83.43991852 C4.6492372 86.57397566 4.64821734 89.70797689 4.64868164 92.84204102 C4.64508636 93.7720845 4.64149109 94.70212799 4.63778687 95.66035461 C4.63916153 96.51568283 4.64053619 97.37101105 4.64195251 98.2522583 C4.64056983 99.36394064 4.64056983 99.36394064 4.6391592 100.49808121 C4.7696095 102.69212935 4.9808685 104.50761482 5.76220703 106.56762695 C9.90158502 107.94741961 13.92961058 108.40179652 17.98486328 106.5559082 C18.57138672 106.22977539 19.15791016 105.90364258 19.76220703 105.56762695 C20.27009766 106.59500977 20.77798828 107.62239258 21.30126953 108.6809082 C23.43568555 112.98623491 25.59546006 117.27849973 27.76220703 121.56762695 C28.26236328 122.56407227 28.76251953 123.56051758 29.27783203 124.5871582 C37.26637306 139.89852851 48.45325501 152.59134931 60.76220703 164.56762695 C61.25720703 160.60762695 61.25720703 160.60762695 61.76220703 156.56762695 C62.09220703 156.56762695 62.42220703 156.56762695 62.76220703 156.56762695 C62.76220703 170.42762695 62.76220703 184.28762695 62.76220703 198.56762695 C51.87220703 198.56762695 40.98220703 198.56762695 29.76220703 198.56762695 C29.97103516 195.77036133 30.17986328 192.9730957 30.39501953 190.09106445 C32.62651417 170.09937027 32.62651417 170.09937027 26.31689453 152.1496582 C22.66488555 149.03027641 18.59128889 146.84972027 14.25585938 144.81860352 C10.15306277 142.76037659 6.68046409 139.94442896 3.07470703 137.13012695 C2.44113281 136.66823975 1.80755859 136.20635254 1.15478516 135.73046875 C-5.00716981 131.22580523 -10.89025372 126.38498888 -14.11279297 119.31762695 C-14.50208984 118.4874707 -14.89138672 117.65731445 -15.29248047 116.80200195 C-16.70602143 113.46090514 -17.36639519 110.81667962 -17.39842224 107.21633911 C-17.41349068 105.88314133 -17.41349068 105.88314133 -17.42886353 104.52301025 C-17.43469452 103.55047302 -17.44052551 102.57793579 -17.4465332 101.57592773 C-17.45631699 100.54964264 -17.46610077 99.52335754 -17.47618103 98.4659729 C-17.50613123 95.06497498 -17.52751647 91.66401626 -17.54638672 88.26293945 C-17.55295855 87.10247982 -17.55953037 85.94202019 -17.56630135 84.74639511 C-17.59888926 78.60690276 -17.62334462 72.46742776 -17.64282227 66.32788086 C-17.66065741 61.24103676 -17.69551481 56.15474468 -17.74536133 51.06811523 C-17.80543634 44.93082923 -17.83628026 38.79405637 -17.84599495 32.65649033 C-17.85457019 30.31604925 -17.87343873 27.97562265 -17.90273857 25.63534927 C-17.94151839 22.36232501 -17.94270496 19.09131346 -17.93481445 15.81811523 C-17.95481506 14.84962646 -17.97481567 13.8811377 -17.99542236 12.88330078 C-17.94583503 8.30761341 -17.71304096 6.19795707 -14.89659119 2.46244812 C-10.38123714 -0.5443262 -5.2305956 -0.08922988 0 0 Z " fill="#F9E7B0" transform="translate(167.23779296875,203.432373046875)"/>
<path d="M0 0 C2.375 0 2.375 0 5 1 C7.39503044 4.1112143 8.9364904 6.8098904 10.18359375 10.54296875 C12.14591079 16.36185068 12.14591079 16.36185068 16 21 C22.00390597 23.30370798 28.58482429 23.51807005 34.95629883 23.71972656 C37 24 37 24 39 26 C39.56640625 28.21875 39.56640625 28.21875 39 31 C36.86510571 33.40867869 34.37660431 35.40678478 31.9375 37.5 C26.79944973 42.16149072 26.79944973 42.16149072 24.2578125 48.41796875 C24.5667832 51.73346204 25.18057274 54.77476661 26 58 C26.29018527 60.03634361 26.54293306 62.07853327 26.75 64.125 C26.86859375 64.99382812 26.9871875 65.86265625 27.109375 66.7578125 C27 69 27 69 25.828125 70.8671875 C24 72 24 72 21.77734375 71.9453125 C17.40395462 70.45676092 13.56593467 68.07665891 9.61523438 65.70703125 C6.51042665 63.94816556 4.5934564 62.99923524 0.96875 63.00390625 C-3.36743596 64.45881075 -7.03586759 66.78631059 -10.87695312 69.20507812 C-14.37038986 71.32103707 -16.88225952 72.69730008 -21 72 C-23 70 -23 70 -23.01171875 67.1015625 C-22.90472656 65.95429687 -22.79773438 64.80703125 -22.6875 63.625 C-22.58824219 62.48289063 -22.48898437 61.34078125 -22.38671875 60.1640625 C-22.08126893 57.66492757 -21.65997026 55.41642656 -21 53 C-20.29521422 48.91514904 -20.29521422 48.91514904 -21 45 C-24.4051311 40.57841185 -28.55183303 37.08612523 -33 33.75 C-35 32 -35 32 -36 29.4375 C-36 27 -36 27 -34.76928711 25.39819336 C-32.65341038 23.72610476 -31.35430749 23.48955796 -28.69140625 23.19140625 C-27.86189453 23.08376953 -27.03238281 22.97613281 -26.17773438 22.86523438 C-24.43854225 22.66390892 -22.69895412 22.46597462 -20.95898438 22.27148438 C-16.0156542 21.64015814 -16.0156542 21.64015814 -11.66015625 19.37890625 C-9.42826579 16.18073851 -7.62803296 12.85440383 -5.875 9.375 C-2.23986486 2.23986486 -2.23986486 2.23986486 0 0 Z " fill="#FAEDCE" transform="translate(376,46)"/>
<path d="M0 0 C0.33 0 0.66 0 1 0 C1.03963867 0.55349121 1.07927734 1.10698242 1.12011719 1.67724609 C2.29534693 17.27663539 3.61993532 29.18203444 16 40 C22.82484229 45.56147059 29.91914318 50.77196041 37 56 C38.90251301 57.4210697 40.80189333 58.8461824 42.69995117 60.27319336 C44.13550812 61.35150035 45.57538452 62.42405034 47.015625 63.49609375 C49 65 49 65 50 66 C50.0169943 69.1042289 49.97069459 72.18355135 49.87890625 75.28515625 C49.84348976 76.68138466 49.84348976 76.68138466 49.80735779 78.1058197 C49.73051875 81.09152725 49.64658205 84.07698848 49.5625 87.0625 C49.50929955 89.08136798 49.45655904 91.10024814 49.40429688 93.11914062 C49.27487636 98.07958434 49.1390882 103.03981833 49 108 C48.04738281 108.46019531 47.09476563 108.92039062 46.11328125 109.39453125 C42.88357028 111.06004092 41.63796962 111.81026968 40 115 C39.47529905 117.68009012 39.22757477 120.26910276 39 123 C15.68292675 100.54652205 6.26637215 68.87360162 1 38 C0.81679199 37.04939697 0.63358398 36.09879395 0.44482422 35.11938477 C-0.06933499 31.51377982 -0.11222457 28.05614347 -0.09765625 24.4140625 C-0.0962413 23.71227875 -0.09482635 23.010495 -0.09336853 22.28744507 C-0.0878129 20.06658496 -0.07526892 17.84582916 -0.0625 15.625 C-0.05747926 14.11067855 -0.05291736 12.5963555 -0.04882812 11.08203125 C-0.03785807 7.38798748 -0.02062449 3.69400394 0 0 Z " fill="#F49D0B" transform="translate(148,295)"/>
<path d="M0 0 C0.85095749 -0.00570007 1.70191498 -0.01140015 2.57865906 -0.01727295 C4.38177241 -0.02672798 6.18490308 -0.03325892 7.98803711 -0.03710938 C10.74038073 -0.04679987 13.49197283 -0.07781175 16.24414062 -0.109375 C17.99608932 -0.11590663 19.74804335 -0.12115647 21.5 -0.125 C22.73149529 -0.1435202 22.73149529 -0.1435202 23.98786926 -0.16241455 C28.61408772 -0.14447636 31.76500795 0.10089863 35.44921875 3.203125 C39.33660201 7.68612584 38.83738322 12.4736168 38.7421875 18.09765625 C38.73794266 19.04501144 38.73369781 19.99236664 38.72932434 20.96842957 C38.71257564 23.98445447 38.67493021 26.99980316 38.63671875 30.015625 C38.621667 32.06444345 38.60797945 34.11327241 38.59570312 36.16210938 C38.56268454 41.1760405 38.51092822 46.18946822 38.44921875 51.203125 C17.86525694 48.00473508 -0.92745578 33.68405957 -14.26171875 18.21875 C-16.49975769 14.71927093 -16.31156098 11.20067666 -15.55078125 7.203125 C-11.69358328 0.31731233 -7.29000437 0.03745952 0 0 Z " fill="#CC4D1A" transform="translate(202.55078125,402.796875)"/>
<path d="M0 0 C3.12898619 -0.29662621 6.06009105 -0.39873156 9.19140625 -0.37231445 C10.14433563 -0.37596512 11.09726501 -0.37961578 12.07907104 -0.38337708 C15.24039329 -0.39150705 18.40120689 -0.37785205 21.5625 -0.36328125 C23.7520345 -0.36276294 25.94156947 -0.36327952 28.13110352 -0.36479187 C32.72451709 -0.36470204 37.31775555 -0.35424991 41.91113281 -0.33618164 C47.80967056 -0.31349417 53.70795224 -0.31294921 59.60652161 -0.31969929 C64.129133 -0.32303506 68.65168563 -0.31641657 73.17428589 -0.30657005 C75.34967746 -0.302711 77.52507556 -0.30157274 79.70046997 -0.3031559 C82.73663874 -0.30352528 85.77247478 -0.29094209 88.80859375 -0.2746582 C90.16765335 -0.27837433 90.16765335 -0.27837433 91.5541687 -0.28216553 C97.77126053 -0.22873947 97.77126053 -0.22873947 100 2 C100.30078125 4.27734375 100.30078125 4.27734375 100.3125 6.9375 C100.32925781 7.81277344 100.34601563 8.68804687 100.36328125 9.58984375 C99.92421843 12.50276589 99.27246713 13.19244722 97 15 C95.13996887 15.37752342 95.13996887 15.37752342 93.01489258 15.38095093 C92.20734528 15.3894104 91.39979797 15.39786987 90.56777954 15.40658569 C89.6856076 15.400513 88.80343567 15.39444031 87.89453125 15.38818359 C86.49658829 15.39606903 86.49658829 15.39606903 85.07040405 15.40411377 C81.98426645 15.41733695 78.89864302 15.40856739 75.8125 15.3984375 C73.67162985 15.40045757 71.53076037 15.40336844 69.38989258 15.40713501 C64.90081233 15.41156151 60.41191103 15.40511673 55.92285156 15.39111328 C50.1622544 15.37402133 44.40207652 15.38386076 38.64149475 15.40183067 C34.22006051 15.41265964 29.79872603 15.40922623 25.37728882 15.4014473 C23.2529597 15.39944284 21.1286216 15.40191314 19.00430298 15.40888596 C16.03778002 15.41648575 13.07194066 15.4049167 10.10546875 15.38818359 C8.78221085 15.39729263 8.78221085 15.39729263 7.43222046 15.40658569 C6.22089951 15.39389648 6.22089951 15.39389648 4.98510742 15.38095093 C4.28383224 15.37981985 3.58255707 15.37868877 2.86003113 15.37752342 C0.4236511 14.88302066 -0.47662105 13.92684331 -2 12 C-2.36328125 9.84375 -2.36328125 9.84375 -2.3125 7.5 C-2.30863281 6.7265625 -2.30476562 5.953125 -2.30078125 5.15625 C-2 3 -2 3 0 0 Z " fill="#F49D0B" transform="translate(150,58)"/>
<path d="M0 0 C2.75329021 1.79562405 4.52627461 3.05254922 6 6 C6.10733875 8.18919041 6.14890628 10.38170012 6.16113281 12.57348633 C6.16609772 13.24849686 6.17106262 13.92350739 6.17617798 14.61897278 C6.19080697 16.85666924 6.19760337 19.09429478 6.203125 21.33203125 C6.20887658 22.88661196 6.21463432 24.44119265 6.22039795 25.99577332 C6.23091054 29.25833466 6.23675127 32.52087136 6.24023438 35.78344727 C6.24571461 39.95989704 6.26973123 44.13602005 6.29820633 48.31236744 C6.3168512 51.52517135 6.32203932 54.73789691 6.32357025 57.95075035 C6.32659399 59.49010692 6.33461315 61.0294622 6.34775543 62.56876564 C6.36485249 64.72553799 6.36292707 66.88151705 6.35644531 69.03833008 C6.36009094 70.26473709 6.36373657 71.4911441 6.36749268 72.75471497 C5.96359978 76.32144611 5.15922137 78.1604573 3 81 C-0.7205836 83.48038907 -2.59796571 83.46337203 -7 83 C-9.36497439 81.13291495 -10.66030715 79.67938569 -12 77 C-12.10741651 74.78018721 -12.14891299 72.5570934 -12.16113281 70.3347168 C-12.16609772 69.6499527 -12.17106262 68.9651886 -12.17617798 68.25967407 C-12.1908077 65.98951214 -12.19760348 63.71942012 -12.203125 61.44921875 C-12.2088765 59.87221779 -12.21463424 58.29521686 -12.22039795 56.71821594 C-12.23091073 53.40857619 -12.23675134 50.09896075 -12.24023438 46.78930664 C-12.24571481 42.55232476 -12.26973177 38.31566495 -12.29820633 34.07878399 C-12.31684993 30.81965707 -12.32203926 27.56060739 -12.32357025 24.30143166 C-12.32659425 22.73974665 -12.33461428 21.17806292 -12.34775543 19.61643028 C-12.36484986 17.42852842 -12.36292768 15.24140873 -12.35644531 13.0534668 C-12.36009094 11.80929489 -12.36373657 10.56512299 -12.36749268 9.2832489 C-11.96883068 5.72152738 -11.14574402 3.84050209 -9 1 C-5.89951072 -0.55024464 -3.42105782 -0.28992015 0 0 Z " fill="#F49E0F" transform="translate(183,229)"/>
<path d="M0 0 C3.43237797 1.0561163 5.30482791 3.69964083 7.1328125 6.65625 C7.75427246 10.00160217 7.75427246 10.00160217 7.74804688 13.68383789 C7.75359589 14.35943253 7.7591449 15.03502716 7.76486206 15.73109436 C7.77660199 17.94777024 7.75244786 20.16237574 7.7265625 22.37890625 C7.72484995 23.92776903 7.72491855 25.47663471 7.72668457 27.02549744 C7.72503463 30.2644338 7.70639616 33.50267526 7.67480469 36.74145508 C7.63509427 40.88650995 7.63076519 45.03065708 7.63826752 49.17586613 C7.64134119 52.37157969 7.62920324 55.56709036 7.61213684 58.76275444 C7.6051222 60.29091557 7.60198044 61.81909969 7.60282898 63.34727669 C7.6010251 65.48462397 7.57959641 67.62089607 7.55273438 69.75805664 C7.54431519 70.97239883 7.535896 72.18674103 7.52722168 73.43788147 C7.09400962 76.97288052 6.27018661 78.83362125 4.1328125 81.65625 C0.62028104 83.99793764 -0.73188106 84.15248677 -4.8671875 83.65625 C-8.20479795 81.50534549 -9.60189683 80.45212201 -10.8671875 76.65625 C-10.96698487 74.42366113 -11.00549614 72.18817656 -11.01245117 69.95336914 C-11.01580978 69.27660629 -11.0191684 68.59984344 -11.02262878 67.90257263 C-11.03212737 65.6654985 -11.03408129 63.42849929 -11.03515625 61.19140625 C-11.03836939 59.63585886 -11.04173351 58.08031177 -11.04524231 56.52476501 C-11.0512307 53.2639801 -11.05308249 50.00322167 -11.05249023 46.74243164 C-11.05238858 42.56486406 -11.0660451 38.38746632 -11.08326244 34.209939 C-11.0943822 30.99717936 -11.09640946 27.7844608 -11.09588051 24.57168388 C-11.09706049 23.03151298 -11.10148333 21.491341 -11.10921288 19.95118904 C-11.11901315 17.79684681 -11.11613485 15.64287359 -11.11010742 13.48852539 C-11.11153244 12.26291397 -11.11295746 11.03730255 -11.11442566 9.77455139 C-10.87535591 6.75927444 -10.5691966 5.12143724 -8.8671875 2.65625 C-5.72262199 0.55987299 -3.70624074 0.29068555 0 0 Z " fill="#F49D0D" transform="translate(248.8671875,228.34375)"/>
<path d="M0 0 C4.45617543 0.79574561 5.70001607 2.11639216 8.5 5.625 C9.11473083 8.93275452 9.11473083 8.93275452 9.09936523 12.73852539 C9.10330795 13.43508743 9.10725067 14.13164948 9.11131287 14.84931946 C9.11800073 17.14117443 9.08891392 19.43101602 9.05859375 21.72265625 C9.05434111 23.32018142 9.05201479 24.91771278 9.05152893 26.51524353 C9.045371 29.85851165 9.02270702 33.20110781 8.98706055 36.54418945 C8.94175185 40.82713377 8.92703217 45.10947063 8.92332363 49.39263248 C8.91889285 52.68950884 8.90358576 55.98625803 8.8844471 59.28307915 C8.8755757 60.86230869 8.86884046 62.44155174 8.86428642 64.02079964 C8.85523209 66.22772083 8.83283266 68.43409626 8.80639648 70.64086914 C8.79043678 72.52353233 8.79043678 72.52353233 8.77415466 74.44422913 C8.51275877 77.47697144 8.21449271 79.14722676 6.5 81.625 C2.74952518 84.12531654 0.94143734 84.16103554 -3.5 83.625 C-6.87208789 81.01633359 -8.32973458 79.52041359 -9.13491821 75.28601074 C-9.13889618 74.01535767 -9.14287415 72.74470459 -9.14697266 71.43554688 C-9.15573425 70.73083755 -9.16449585 70.02612823 -9.17352295 69.30006409 C-9.19545221 66.98065831 -9.18098981 64.66317365 -9.1640625 62.34375 C-9.16743256 60.72619258 -9.17228677 59.10863764 -9.17855835 57.49108887 C-9.18592081 54.10497877 -9.1752452 50.71952925 -9.15185547 47.33349609 C-9.12336706 42.99867932 -9.13977453 38.66541034 -9.16971779 34.33065033 C-9.1878083 30.99164217 -9.18202492 27.65299943 -9.16907883 24.3139801 C-9.16574961 22.71602697 -9.16981491 21.11804039 -9.18147659 19.52012634 C-9.19421553 17.28401161 -9.1747718 15.05038316 -9.14697266 12.81445312 C-9.14299469 11.54380005 -9.13901672 10.27314697 -9.13491821 8.96398926 C-8.1047295 3.54630084 -5.3790458 0.96054389 0 0 Z " fill="#F49D0B" transform="translate(213.5,228.375)"/>
<path d="M0 0 C0.87648193 -0.00287018 1.75296387 -0.00574036 2.65600586 -0.00869751 C4.50863288 -0.01073848 6.36128142 -0.00520628 8.21386719 0.00732422 C11.05192179 0.02337766 13.88855227 0.00747695 16.7265625 -0.01171875 C18.52604481 -0.00973632 20.32552624 -0.00589266 22.125 0 C22.97505615 -0.00607269 23.8251123 -0.01214539 24.70092773 -0.0184021 C30.66631258 0.05292183 30.66631258 0.05292183 32.81030273 1.92269897 C33.22352783 2.40969269 33.63675293 2.8966864 34.0625 3.3984375 C21.04232701 20.64953711 6.16916585 36.42427591 -13.9375 45.3984375 C-14.5975 45.3984375 -15.2575 45.3984375 -15.9375 45.3984375 C-16.03672625 40.38140571 -16.10913587 35.36495098 -16.15722656 30.34716797 C-16.17728369 28.64198856 -16.20453657 26.93687744 -16.23925781 25.23193359 C-16.28803861 22.77424226 -16.31052719 20.31746384 -16.328125 17.859375 C-16.34877014 17.10288666 -16.36941528 16.34639832 -16.39068604 15.56698608 C-16.39320538 9.56061541 -14.44069949 6.36084872 -10.55010986 1.75653076 C-7.63033353 -0.7024202 -3.65278553 -0.02609503 0 0 Z " fill="#CC4E1A" transform="translate(340.9375,402.6015625)"/>
<path d="M0 0 C13.91111111 0 13.91111111 0 19 4 C25.39067515 10.80927833 26.19458955 16.27366956 26.25 25.3125 C26.270625 26.14201172 26.29125 26.97152344 26.3125 27.82617188 C26.35535805 34.61381557 25.19533101 39.30287905 20.8125 44.6875 C13.79567651 50.4568882 9.71202922 51 0 51 C0 34.17 0 17.34 0 0 Z " fill="#CB4D1B" transform="translate(445,133)"/>
<path d="M0 0 C2.375 0 2.375 0 5 1 C9 6.08108108 9 6.08108108 9 9 C8.01 9.7425 7.02 10.485 6 11.25 C-2.05726764 17.94801314 -7.64049088 29.74310944 -9 40 C-9.56838595 49.18735323 -9.13448226 58.00468189 -7 67 C-8.38782485 67.8466034 -9.78569397 68.67675339 -11.1875 69.5 C-12.35345703 70.19609375 -12.35345703 70.19609375 -13.54296875 70.90625 C-16.28710371 72.12780452 -18.02959697 72.35944373 -21 72 C-23 70 -23 70 -23.01171875 67.1015625 C-22.90472656 65.95429687 -22.79773438 64.80703125 -22.6875 63.625 C-22.58824219 62.48289063 -22.48898437 61.34078125 -22.38671875 60.1640625 C-22.08126893 57.66492757 -21.65997026 55.41642656 -21 53 C-20.29521422 48.91514904 -20.29521422 48.91514904 -21 45 C-24.4051311 40.57841185 -28.55183303 37.08612523 -33 33.75 C-35 32 -35 32 -36 29.4375 C-36 27 -36 27 -34.76928711 25.39819336 C-32.65341038 23.72610476 -31.35430749 23.48955796 -28.69140625 23.19140625 C-27.86189453 23.08376953 -27.03238281 22.97613281 -26.17773438 22.86523438 C-24.43854225 22.66390892 -22.69895412 22.46597462 -20.95898438 22.27148438 C-16.0156542 21.64015814 -16.0156542 21.64015814 -11.66015625 19.37890625 C-9.42826579 16.18073851 -7.62803296 12.85440383 -5.875 9.375 C-2.23986486 2.23986486 -2.23986486 2.23986486 0 0 Z " fill="#FAD09A" transform="translate(376,46)"/>
<path d="M0 0 C1.96718994 -0.01418472 1.96718994 -0.01418472 3.97412109 -0.02865601 C5.40722963 -0.02328633 6.84033542 -0.01713339 8.2734375 -0.01025391 C9.74170069 -0.01227472 11.2099629 -0.01518622 12.67822266 -0.01895142 C15.75498005 -0.02337447 18.83147611 -0.0169446 21.90820312 -0.00292969 C25.85284221 0.01416253 29.79686898 0.00432119 33.7414856 -0.01364708 C36.77324033 -0.02448563 39.80484979 -0.02103833 42.83660889 -0.0132637 C44.2910774 -0.01126187 45.74555908 -0.01372039 47.20001221 -0.02070236 C49.23229726 -0.02831708 51.26462852 -0.01465382 53.296875 0 C54.45364746 0.00238678 55.61041992 0.00477356 56.80224609 0.00723267 C59.6484375 0.38818359 59.6484375 0.38818359 61.52050781 1.77767944 C63.00926775 3.90339179 63.04922275 5.30965848 63.0234375 7.88818359 C63.03503906 9.04833984 63.03503906 9.04833984 63.046875 10.23193359 C62.53557543 12.99896654 61.90432145 13.71381198 59.6484375 15.38818359 C56.80224609 15.76913452 56.80224609 15.76913452 53.296875 15.77636719 C51.32968506 15.79055191 51.32968506 15.79055191 49.32275391 15.80502319 C47.88964537 15.79965352 46.45653958 15.79350057 45.0234375 15.78662109 C43.55517431 15.78864191 42.0869121 15.79155341 40.61865234 15.7953186 C37.54189495 15.79974165 34.46539889 15.79331179 31.38867188 15.77929688 C27.44403279 15.76220466 23.50000602 15.77204599 19.5553894 15.79001427 C16.52363467 15.80085282 13.49202521 15.79740551 10.46026611 15.78963089 C9.0057976 15.78762906 7.55131592 15.79008757 6.09686279 15.79706955 C4.06457774 15.80468426 2.03224648 15.79102101 0 15.77636719 C-1.15677246 15.77398041 -2.31354492 15.77159363 -3.50537109 15.76913452 C-6.3515625 15.38818359 -6.3515625 15.38818359 -8.22363281 13.99868774 C-9.71239275 11.8729754 -9.75234775 10.4667087 -9.7265625 7.88818359 C-9.73429688 7.11474609 -9.74203125 6.34130859 -9.75 5.54443359 C-8.73305123 0.04094613 -4.9328133 0.01017792 0 0 Z " fill="#F49D0B" transform="translate(157.3515625,90.61181640625)"/>
<path d="M0 0 C2.4063973 3.71367889 2.25846527 7.33786115 2.1953125 11.609375 C2.19329834 12.25406738 2.19128418 12.89875977 2.18920898 13.56298828 C2.17878781 15.95873179 2.15086526 18.35437345 2.125 20.75 C2.08375 26.1125 2.0425 31.475 2 37 C-8.89 37 -19.78 37 -31 37 C-31 31.72 -31 26.44 -31 21 C-29.246875 20.175 -27.49375 19.35 -25.6875 18.5 C-16.07448847 13.68783286 -7.8971629 7.24095165 0 0 Z " fill="#F8E7B0" transform="translate(367,365)"/>
</svg>
